<?xml version="1.0" encoding="UTF-8" standalone="no"?><!DOCTYPE svg PUBLIC "-//W3C//DTD SVG 1.1//EN" "http://www.w3.org/Graphics/SVG/1.1/DTD/svg11.dtd"><svg width="100%" height="100%" viewBox="0 0 800 300" version="1.1" xmlns="http://www.w3.org/2000/svg" xmlns:xlink="http://www.w3.org/1999/xlink" xml:space="preserve" style="fill-rule:evenodd;clip-rule:evenodd;stroke-linejoin:round;stroke-miterlimit:1.41421;"><g id="Ebene-1"><g><path d="M573.027,63.308l9.919,0l0,119.537c-3.306,-0.07 -6.889,0.137 -10.023,-0.106l0,-119.118c-0.009,-0.148 -0.016,-0.295 0.104,-0.313" style="fill:#000;"/><path d="M597.979,63.308l10.962,0l0,12.632l-11.066,0c0.07,-4.176 -0.139,-8.631 0.104,-12.632" style="fill:#000;"/><path d="M433.134,99.534l7.621,0l0,8.457l-7.517,0c-0.19,18.5 -0.103,39.166 -0.104,58.566c0,2.94 -0.167,5.871 0.836,7.518c1.055,1.734 4.119,2.06 6.785,1.88l0,8.768c-6.579,0.421 -13.056,0.039 -15.45,-4.489c-2.175,-4.111 -2.089,-10.202 -2.089,-16.496l0,-55.747l-5.428,0l0,-8.457l5.428,0l0,-18.374c3.239,-1.321 6.785,-2.891 9.918,-3.968l0,22.342Z" style="fill:#000;"/><path d="M753.846,78.341l8.665,0l0,2.296l-3.027,0c-0.244,8.978 -0.035,18.408 -0.104,27.563c-0.844,-0.062 -1.937,0.126 -2.61,-0.105l0,-27.458l-3.028,0c0.068,-0.731 -0.138,-1.738 0.104,-2.296" style="fill:#000;"/><path d="M765.33,78.341l4.385,0c0.842,9.249 1.934,18.249 2.818,27.457c0.583,-2.126 0.697,-4.434 0.94,-6.682c0.741,-6.884 1.345,-13.929 2.088,-20.775l4.385,0l0,29.859c-0.742,-0.058 -1.725,0.123 -2.297,-0.105c-0.069,-9.154 0.138,-18.584 -0.105,-27.561c-0.53,0.298 -0.373,1.111 -0.417,1.566c-0.82,8.504 -1.876,17.63 -2.819,26.1l-3.549,0c-1.062,-9.205 -1.857,-18.677 -3.133,-27.666c-0.484,8.786 -0.071,18.475 -0.208,27.666l-2.192,0c0.069,-9.919 -0.14,-20.116 0.104,-29.859" style="fill:#000;"/><path d="M286.35,122.814l0,32.99c0,5.719 -0.184,11.772 1.879,14.617c1.527,2.103 5.589,2.944 8.039,1.565c3.394,-1.909 3.549,-8.371 3.549,-14.617l0,-36.434c0,-5.936 0.115,-12.569 -3.759,-14.512c-1.06,-0.531 -3.178,-0.556 -4.175,-0.415c-6.132,0.86 -5.533,9.838 -5.533,16.806M299.817,104.543c0.322,-1.626 0.507,-3.39 0.836,-5.009l9.291,0l0,87.694c0,7.791 -0.058,14.763 -1.984,19.942c-2.011,5.407 -6.517,8.074 -13.676,8.246c-7.469,0.179 -12.841,-1.693 -15.451,-6.472c-2.511,-4.596 -2.891,-11.123 -2.714,-19.21l10.44,0c0.29,5.488 -0.647,11.396 1.462,14.93c1.807,3.03 7.566,3.108 9.708,0.416c2.448,-3.074 2.088,-9.592 2.088,-15.659l0,-15.242c-0.979,1.191 -1.603,2.357 -2.61,3.341c-4.817,4.703 -15.231,4.841 -18.687,-1.044c-2.355,-4.009 -2.401,-10.682 -2.401,-17.331l0,-39.462c0,-11.007 0.072,-21.328 9.918,-22.133c7.047,-0.576 11.073,2.693 13.78,6.993" style="fill:#000;"/><path d="M348.258,121.143c0,-7.34 0.416,-15.811 -7.203,-15.135c-6.049,0.533 -5.951,8.058 -5.951,14.822l0,16.601c4.176,0.243 8.804,0.034 13.154,0.104l0,-16.392ZM358.698,145.991l-23.594,0l0,15.346c0,4.836 -0.143,10.687 2.087,13.259c2.037,2.347 7.034,2.277 8.979,0c3.449,-4.041 1.512,-13.619 2.088,-20.358l10.44,0c-0.217,9.403 0.608,17.507 -2.61,23.908c-2.202,4.38 -7.154,6.456 -13.154,6.682c-6.137,0.229 -11.678,-1.256 -14.511,-5.22c-3.297,-4.613 -3.55,-13.199 -3.55,-21.402l0,-24.953c0,-8.961 -0.431,-17.435 0.94,-24.01c1.543,-7.409 5.482,-11.175 13.572,-11.693c8.245,-0.527 13.826,1.56 16.494,6.472c2.704,4.978 2.819,12.08 2.819,19.627l0,22.342Z" style="fill:#000;"/><path d="M407.452,182.844l-9.918,0l0,-57.106c0,-5.984 0.619,-13.488 -1.775,-17.227c-2.008,-3.137 -8.162,-3.291 -10.335,-0.104c-2.48,3.637 -1.88,11.303 -1.88,17.226l0,57.211l-9.918,0l0,-83.31l9.292,0c0.245,1.6 0.439,3.25 0.626,4.906c2.324,-3.221 5.391,-6.46 10.649,-6.89c13.435,-1.097 13.259,10.566 13.259,23.176l0,62.118Z" style="fill:#000;"/><path d="M460.695,123.232c0,10.886 0,24.414 0,35.287c0,5.941 -0.492,12.86 1.879,15.869c1.958,2.481 6.857,2.25 8.665,0.625c2.906,-2.61 2.61,-9.946 2.61,-15.973c0,-12.689 0.001,-24.053 0,-37.164c0,-7.626 0.47,-16.766 -7.412,-15.765c-6.494,0.823 -5.742,9.771 -5.742,17.121M464.766,97.654c5.931,-0.464 11.53,0.596 14.616,3.549c5.873,5.62 4.907,19.476 4.907,31.217c0.001,6.141 0,12.297 0,18.06c0.001,11.839 0.934,25.581 -5.221,31.006c-3.385,2.985 -9.033,3.795 -14.615,3.236c-5.188,-0.518 -9.336,-2.619 -11.379,-6.68c-2.169,-4.315 -2.58,-10.632 -2.715,-17.436c-0.143,-7.27 0,-13.285 0,-20.043c0,-7.247 -0.316,-13.472 0,-20.149c0.285,-6.006 0.634,-12.946 3.029,-17.017c2.139,-3.639 6.406,-5.354 11.378,-5.743" style="fill:#000;"/><path d="M509.136,123.755l0,36.434c0,5.998 -0.274,13.044 3.027,15.242c2.127,1.417 6.105,0.972 7.621,-0.417c2.851,-2.61 2.506,-10.157 2.506,-16.077c-0.001,-12.475 0,-24.193 0,-37.166c-0.001,-7.677 0.41,-16.654 -7.412,-15.659c-6.623,0.839 -5.742,10.235 -5.742,17.643M513.207,97.654c7.415,-0.579 14.047,1.159 16.809,6.578c2.97,5.829 2.714,15.851 2.714,25.264c0.001,9.575 0,18.499 0,27.873c0.001,9.199 -0.147,18.771 -4.593,23.387c-4.34,4.503 -15.133,5.618 -21.819,2.088c-6.39,-3.375 -7.168,-11.501 -7.517,-21.611c-0.244,-7.055 0,-13.255 0,-19.941c0,-6.805 -0.151,-13.781 0,-20.043c0.146,-6.139 0.558,-13.015 2.714,-17.227c2.097,-4.095 6.452,-5.958 11.692,-6.368" style="fill:#000;"/><path d="M657.486,182.844l-9.918,0c0.001,-18.346 -0.001,-37.662 0,-56.69c0,-5.993 0.677,-13.366 -1.565,-17.328c-1.468,-2.597 -5.872,-3.822 -8.98,-1.88c-3.815,2.386 -3.339,10.276 -3.339,16.495l0,59.298c-3.133,0.243 -6.716,0.035 -10.022,0.105l0,-83.31l9.29,0c0.272,1.573 0.452,3.236 0.626,4.906c2.349,-3.195 5.394,-6.46 10.65,-6.89c13.372,-1.093 13.258,10.381 13.258,23.071c0.001,20.397 0,43.105 0,62.223" style="fill:#000;"/><path d="M598.396,99.534l9.918,0c-0.07,27.736 0.14,55.747 -0.104,83.31l-9.814,0c-0.244,-27.456 -0.034,-55.366 -0.104,-82.997c-0.009,-0.148 -0.018,-0.294 0.104,-0.313" style="fill:#000;"/><path d="M672.832,99.534l9.919,0c0.002,17.894 -0.002,37.717 0,56.688c0,7.36 -1.14,17.744 4.279,19.733c3.185,1.166 6.451,-0.116 7.727,-2.194c2.359,-3.844 1.774,-11.261 1.774,-17.226c-0.001,-19.007 0.002,-38.493 0,-57.001l10.126,0l0,83.205c-2.888,0.243 -6.227,0.035 -9.291,0.105c-0.375,-1.573 -0.577,-3.321 -0.835,-5.011c-2.139,3.971 -6.888,7.06 -13.259,6.786c-10.625,-0.459 -10.545,-11.528 -10.544,-22.864c0.002,-20.539 -0.002,-41.962 0,-61.908c-0.009,-0.148 -0.018,-0.294 0.104,-0.313" style="fill:#000;"/><path d="M716.994,99.534l10.334,0c2.417,10.145 4.773,20.352 7.1,30.588c2.451,-10.077 4.67,-20.385 6.995,-30.588l9.5,0c-3.514,12.367 -6.88,24.96 -10.439,37.689c-0.242,0.86 -0.719,1.771 -0.731,2.399c-0.028,1.307 1.179,4.081 1.566,5.429c3.619,12.62 7.127,25.314 10.752,37.793l-10.752,0c-2.735,-11.428 -5.515,-22.812 -8.143,-34.348c-2.843,11.323 -5.461,22.867 -8.144,34.348l-9.499,0c3.635,-12.486 7.165,-25.186 10.856,-38.001c0.505,-1.753 1.545,-3.822 1.567,-5.325c0.017,-1.353 -0.913,-3.403 -1.358,-5.011c-3.205,-11.569 -6.396,-23.236 -9.604,-34.66c0.021,-0.18 -0.178,-0.271 0,-0.313" style="fill:#000;"/></g><g id="g5680"><path id="path2973" d="M20.077,215.07c0.024,-9.23 7.87,-22.116 19.019,-33.822c7.45,-7.824 15.016,-14.691 31.511,-28.755c-11.41,-6.26 -29.154,-13.813 -38.058,-23.705c-3.294,-3.661 -9.266,-11.953 -8.107,-23.032c2.36,-22.58 30.231,-56.848 69.846,-64.092c13.181,-2.411 28.315,-0.671 40.771,4.929c39.075,17.567 86.863,61.211 92.743,82.522c2.069,7.5 1.671,19.457 -1.896,26.12c-4.422,8.259 -19.73,25.033 -40.673,42.342c-32.862,27.159 -78.911,56.321 -113.295,61.229c-11.111,1.585 -22.462,-0.069 -30.427,-4.563c-12.464,-7.033 -16.601,-16.422 -18.055,-19.236c-3.867,-7.484 -3.387,-16.964 -3.379,-19.937ZM112.562,111.374c0.424,-5.233 20.945,-0.023 19.648,4.121c-1.368,4.372 -20.135,1.883 -19.648,-4.121Z" style="fill:url(#_Linear1);"/><g id="mid"><path id="path2975" d="M81.713,143.846c-10.799,9.118 -17.979,15.265 -26.98,23.492c-21.677,19.812 -36.405,34.893 -28.812,55.508c8.76,23.78 27.961,22.574 50.478,18.154c58.04,-11.447 153.446,-84.794 148.583,-111.885c-3.935,-21.922 -57.237,-65.504 -88.796,-81.013c-9.86,-4.845 -21.222,-7.351 -32.619,-6.814c-43.396,2.048 -77.285,41.557 -75.554,62.964c1.684,20.827 54.321,38.973 53.7,39.594ZM75.199,71.142c-13.058,14.528 -4.709,42.636 16.945,57.957c25.339,17.927 66.372,21.173 74.538,7.347c15.231,-25.787 -1.399,-53.055 -26.223,-65.218c-24.531,-12.02 -57.121,-9.142 -65.26,-0.086l0,0Z" style="fill:url(#_Linear2);"/><path id="path4976" d="M119.731,128.489c18.331,2.548 34.133,-4.793 36.604,-22.895c1.882,-13.789 -19.222,-28.855 -31.91,-32.33c-10.595,-2.902 -33.598,0.83 -35.149,20.869c-1.612,20.832 19.765,32.871 30.455,34.356ZM110.753,93.842c-12.047,18.664 17.493,24.402 22.015,20.998c19.498,-14.674 -16.707,-29.221 -22.015,-20.998Z" style="fill:url(#_Radial3);"/></g><path id="path2977" d="M100.069,46.247c-21.311,2.246 -25.392,4.988 -44.698,19.595c-6.47,4.895 -18.379,16.807 -21.43,30.938c-1.163,5.382 0.211,10.028 4.087,13.286c12.411,10.435 33.184,18.9 50.226,27.083c4.991,2.397 1.686,6.743 -6.363,13.712c-20.312,17.584 -47.773,38.989 -49.69,55.299c-0.904,7.686 1.727,18.13 11.056,23.475c10.898,6.243 33.52,2.168 48.626,-3.457c22.074,-8.22 51.07,-26.361 74.09,-44.193c23.938,-18.544 46.196,-42.096 47.297,-45.938c1.352,-4.717 1.217,-9.074 -1.392,-14.083c-4.097,-7.866 -9.575,-13.712 -15.457,-20.254c-15.782,-16.638 -32.479,-31.257 -52.457,-42.46c-14.427,-8.091 -27.12,-14.771 -43.895,-13.003ZM131.373,83.547c15.396,7.444 31.206,26.995 -0.137,38.248c-8.523,3.06 -35.554,-7.515 -34.726,-21.946c1.206,-21.319 16.064,-25.39 34.863,-16.302l0,0Z" style="fill:url(#_Radial4);"/></g></g><defs><linearGradient id="_Linear1" x1="0" y1="0" x2="1" y2="0" gradientUnits="userSpaceOnUse" gradientTransform="matrix(137.32,719.201,-719.201,137.32,-12.7656,-459.807)"><stop offset="0%" style="stop-color:#fff;stop-opacity:1"/><stop offset="34%" style="stop-color:#fff;stop-opacity:1"/><stop offset="51%" style="stop-color:#bebdf3;stop-opacity:1"/><stop offset="75%" style="stop-color:#867fb7;stop-opacity:1"/><stop offset="87%" style="stop-color:#9f99c7;stop-opacity:1"/><stop offset="100%" style="stop-color:#524c76;stop-opacity:1"/></linearGradient><linearGradient id="_Linear2" x1="0" y1="0" x2="1" y2="0" gradientUnits="userSpaceOnUse" gradientTransform="matrix(-41.4782,-185.977,185.977,-41.4782,156.163,202.263)"><stop offset="0%" style="stop-color:#fff;stop-opacity:1"/><stop offset="34%" style="stop-color:#fff;stop-opacity:1"/><stop offset="51%" style="stop-color:#bebbdb;stop-opacity:1"/><stop offset="75%" style="stop-color:#928bbe;stop-opacity:1"/><stop offset="87%" style="stop-color:#9f99c7;stop-opacity:1"/><stop offset="100%" style="stop-color:#524c76;stop-opacity:1"/></linearGradient><radialGradient id="_Radial3" cx="0" cy="0" r="1" gradientUnits="userSpaceOnUse" gradientTransform="matrix(36.9132,0,0,28.2927,107.505,89.2005)"><stop offset="0%" style="stop-color:#fff;stop-opacity:1"/><stop offset="34%" style="stop-color:#fff;stop-opacity:1"/><stop offset="51%" style="stop-color:#bebbdb;stop-opacity:1"/><stop offset="75%" style="stop-color:#928bbe;stop-opacity:1"/><stop offset="87%" style="stop-color:#9f99c7;stop-opacity:1"/><stop offset="100%" style="stop-color:#524c76;stop-opacity:1"/></radialGradient><radialGradient id="_Radial4" cx="0" cy="0" r="1" gradientUnits="userSpaceOnUse" gradientTransform="matrix(-5.06038,321.086,-273.845,-4.31164,23.522,98.2549)"><stop offset="0%" style="stop-color:#fff;stop-opacity:1"/><stop offset="34%" style="stop-color:#fff;stop-opacity:1"/><stop offset="51%" style="stop-color:#bebbdb;stop-opacity:1"/><stop offset="75%" style="stop-color:#928bbe;stop-opacity:1"/><stop offset="87%" style="stop-color:#9f99c7;stop-opacity:1"/><stop offset="100%" style="stop-color:#524c76;stop-opacity:1"/></radialGradient></defs></svg>